<svg aria-hidden="true" style="position: absolute; width: 0; height: 0; overflow: hidden;" version="1.1" xmlns="http://www.w3.org/2000/svg" xmlns:xlink="http://www.w3.org/1999/xlink">
<defs>
<symbol id="menu" viewBox="0 0 32 32">
<path d="M4 24h24v-2.667h-24v2.667zM4 17.333h24v-2.667h-24v2.667zM4 8v2.667h24v-2.667h-24z"></path>
</symbol>
<symbol id="out" viewBox="0 0 32 32">
<path d="M25.293 9.293l-1.413 1.414 4.292 4.292h-14.172v2.001h14.172l-4.292 4.292 1.413 1.414 6.707-6.707-6.707-6.707z"></path>
<path d="M22 30h-20v-28h20v2h2v-2.999c0-0 0-0.001 0-0.001 0-0.552-0.447-0.999-0.999-0.999 0 0 0 0 0 0h-22c-0 0-0.001 0-0.001 0-0.552 0-0.999 0.447-0.999 0.999 0 0 0 0.001 0 0.001v-0 30c0 0.553 0.448 0.999 1.001 0.999h22c0.553 0 0.999-0.448 0.999-1.001v-2.999h-2v2z"></path>
</symbol>
<symbol id="arrow" viewBox="0 0 32 32">
<path d="M31.805 15.529l-10-10c-0.121-0.121-0.287-0.195-0.471-0.195-0.368 0-0.667 0.299-0.667 0.667 0 0.184 0.075 0.351 0.195 0.471v0l8.862 8.862h-29.056c-0.368 0-0.667 0.298-0.667 0.667s0.298 0.667 0.667 0.667v0h29.056l-8.862 8.862c-0.121 0.121-0.195 0.287-0.195 0.471 0 0.368 0.299 0.667 0.667 0.667 0.184 0 0.351-0.075 0.471-0.195v0l10-10c0.121-0.121 0.195-0.287 0.195-0.471s-0.075-0.351-0.195-0.471v0z"></path>
</symbol>
<symbol id="close" viewBox="0 0 32 32">
<path d="M25.333 8.546l-1.879-1.879-7.454 7.454-7.453-7.454-1.881 1.879 7.454 7.454-7.454 7.454 1.881 1.879 7.453-7.454 7.454 7.454 1.879-1.879-7.453-7.454 7.453-7.454z"></path>
</symbol>
<symbol id="heart" viewBox="0 0 32 32">
<path fill="#ff6b08" style="fill:var(--color2, #ff6b08)" d="m16 31-2-3C5 21 0 16 0 10c0-5 4-9 9-9 3 0 5 1 7 4 2-3 4-4 7-4 5 0 9 4 9 9 0 6-5 11-14 18l-2 3z"/>
</symbol>
</defs>
</svg>
