<svg aria-hidden="true" style="position: absolute; width: 0; height: 0; overflow: hidden;" version="1.1" xmlns="http://www.w3.org/2000/svg" xmlns:xlink="http://www.w3.org/1999/xlink">
<defs>
<symbol id="menu" viewBox="0 0 32 32">
<path d="M4 24h24v-2.667h-24v2.667zM4 17.333h24v-2.667h-24v2.667zM4 8v2.667h24v-2.667h-24z"></path>
</symbol>
<symbol id="out" viewBox="0 0 32 32">
<path d="M25.293 9.293l-1.413 1.414 4.292 4.292h-14.172v2.001h14.172l-4.292 4.292 1.413 1.414 6.707-6.707-6.707-6.707z"></path>
<path d="M22 30h-20v-28h20v2h2v-2.999c0-0 0-0.001 0-0.001 0-0.552-0.447-0.999-0.999-0.999 0 0 0 0 0 0h-22c-0 0-0.001 0-0.001 0-0.552 0-0.999 0.447-0.999 0.999 0 0 0 0.001 0 0.001v-0 30c0 0.553 0.448 0.999 1.001 0.999h22c0.553 0 0.999-0.448 0.999-1.001v-2.999h-2v2z"></path>
</symbol>
<symbol id="arrow" viewBox="0 0 32 32">
<path d="M31.805 15.529l-10-10c-0.121-0.121-0.287-0.195-0.471-0.195-0.368 0-0.667 0.299-0.667 0.667 0 0.184 0.075 0.351 0.195 0.471v0l8.862 8.862h-29.056c-0.368 0-0.667 0.298-0.667 0.667s0.298 0.667 0.667 0.667v0h29.056l-8.862 8.862c-0.121 0.121-0.195 0.287-0.195 0.471 0 0.368 0.299 0.667 0.667 0.667 0.184 0 0.351-0.075 0.471-0.195v0l10-10c0.121-0.121 0.195-0.287 0.195-0.471s-0.075-0.351-0.195-0.471v0z"></path>
</symbol>
<symbol id="icon-arrow-left" viewBox="0 0 48 32">
<path d="M0.293 16.707l15 15c0.391 0.391 1.023 0.391 1.414 0s0.391-1.023 0-1.414l-13.293-13.293h43.586c0.553 0 1-0.447 1-1s-0.447-1-1-1h-43.586l13.293-13.293c0.391-0.391 0.391-1.023 0-1.414-0.195-0.195-0.451-0.293-0.707-0.293s-0.512 0.098-0.707 0.293l-15 15c-0.391 0.391-0.391 1.023 0 1.414z"></path>
</symbol>
<symbol id="icon-arrow-right" viewBox="0 0 48 32">
<path d="M47.707 15.293l-15-15c-0.391-0.391-1.023-0.391-1.414 0s-0.391 1.023 0 1.414l13.293 13.293h-43.586c-0.553 0-1 0.447-1 1s0.447 1 1 1h43.586l-13.293 13.293c-0.391 0.391-0.391 1.024 0 1.414 0.195 0.195 0.451 0.293 0.707 0.293s0.512-0.098 0.707-0.293l15-15c0.39-0.391 0.39-1.023-0-1.414z"></path>
</symbol>
<symbol id="close" viewBox="0 0 32 32">
<path d="M25.333 8.546l-1.879-1.879-7.454 7.454-7.453-7.454-1.881 1.879 7.454 7.454-7.454 7.454 1.881 1.879 7.453-7.454 7.454 7.454 1.879-1.879-7.453-7.454 7.453-7.454z"></path>
</symbol>
<symbol id="heart" viewBox="0 0 32 32">
<path fill="#ff6b08" style="fill:var(--color2, #ff6b08)" d="m16 31-2-3C5 21 0 16 0 10c0-5 4-9 9-9 3 0 5 1 7 4 2-3 4-4 7-4 5 0 9 4 9 9 0 6-5 11-14 18l-2 3z"/>
</symbol>
<symbol id="icon-github" viewBox="0 0 33 32">
<path d="M16.384 0c-9.048 0-16.384 7.335-16.384 16.384 0 7.239 4.695 13.38 11.204 15.547 0.819 0.152 1.119-0.355 1.119-0.788 0-0.391-0.015-1.681-0.022-3.050-4.558 0.991-5.52-1.933-5.52-1.933-0.745-1.894-1.819-2.397-1.819-2.397-1.487-1.017 0.112-0.996 0.112-0.996 1.645 0.116 2.512 1.688 2.512 1.688 1.461 2.505 3.833 1.781 4.768 1.362 0.147-1.059 0.572-1.782 1.040-2.191-3.639-0.414-7.465-1.819-7.465-8.097 0-1.789 0.64-3.25 1.688-4.398-0.17-0.413-0.731-2.079 0.159-4.336 0 0 1.376-0.44 4.507 1.679 1.307-0.363 2.709-0.545 4.101-0.551 1.392 0.006 2.795 0.188 4.104 0.551 3.127-2.12 4.501-1.679 4.501-1.679 0.892 2.257 0.331 3.923 0.161 4.336 1.051 1.147 1.686 2.609 1.686 4.398 0 6.293-3.833 7.678-7.481 8.084 0.588 0.508 1.111 1.506 1.111 3.034 0 2.192-0.019 3.957-0.019 4.496 0 0.436 0.295 0.947 1.125 0.786 6.506-2.169 11.195-8.308 11.195-15.545 0-9.049-7.336-16.384-16.384-16.384zM6.136 23.34c-0.036 0.081-0.164 0.106-0.281 0.050-0.119-0.053-0.186-0.164-0.147-0.246 0.035-0.084 0.164-0.107 0.282-0.051 0.119 0.053 0.187 0.166 0.146 0.247zM6.942 24.059c-0.078 0.072-0.231 0.039-0.335-0.076-0.107-0.114-0.127-0.267-0.048-0.34 0.081-0.072 0.229-0.039 0.336 0.076 0.107 0.116 0.128 0.267 0.046 0.34zM7.495 24.979c-0.1 0.070-0.265 0.004-0.366-0.141-0.1-0.146-0.1-0.32 0.002-0.39s0.263-0.007 0.366 0.138c0.1 0.148 0.1 0.323-0.002 0.394zM8.43 26.044c-0.090 0.099-0.281 0.072-0.421-0.063-0.143-0.132-0.183-0.32-0.093-0.419s0.283-0.071 0.424 0.063c0.142 0.132 0.186 0.321 0.090 0.419zM9.639 26.404c-0.040 0.128-0.224 0.187-0.409 0.132-0.185-0.056-0.307-0.206-0.269-0.336 0.039-0.129 0.224-0.19 0.411-0.132 0.185 0.056 0.307 0.205 0.268 0.336zM11.014 26.557c0.005 0.135-0.153 0.247-0.348 0.25-0.196 0.004-0.354-0.105-0.357-0.238 0-0.136 0.154-0.247 0.35-0.251 0.195-0.004 0.354 0.105 0.354 0.239zM12.365 26.505c0.023 0.132-0.112 0.267-0.306 0.303-0.19 0.035-0.366-0.047-0.39-0.177-0.024-0.135 0.114-0.27 0.304-0.305 0.194-0.034 0.367 0.046 0.392 0.18z"></path>
</symbol>
</defs>
</svg>
