<svg aria-hidden="true" style="position: absolute; width: 0; height: 0; overflow: hidden;" version="1.1" xmlns="http://www.w3.org/2000/svg" xmlns:xlink="http://www.w3.org/1999/xlink">
<defs>
<symbol id="heart-1" viewBox="0 0 32 32">
<path d="M16 30.22c-0.455 0-0.895-0.165-1.237-0.465-0.746-0.661-1.93-1.684-3.121-2.699l-0.523-0.435c-3.225-2.748-6.009-5.12-7.946-7.457-2.165-2.613-3.173-5.090-3.173-7.797 0-2.629 0.901-5.055 2.539-6.83 1.657-1.797 3.93-2.786 6.4-2.786 1.847 0 3.539 0.583 5.028 1.735 0.778 0.612 1.449 1.311 2.012 2.092l0.021 0.030c0.584-0.812 1.255-1.511 2.011-2.106l0.022-0.017c1.489-1.152 3.181-1.735 5.027-1.735 2.471 0 4.745 0.989 6.401 2.786 1.637 1.775 2.539 4.199 2.539 6.83 0 2.707-1.008 5.184-3.173 7.797-1.937 2.336-4.721 4.709-7.945 7.456-1.102 0.939-2.35 2.002-3.646 3.136-0.328 0.288-0.761 0.463-1.234 0.463-0.001 0-0.001 0-0.002 0h0zM8.939 3.625c-1.941 0-3.725 0.774-5.022 2.182-1.317 1.428-2.043 3.403-2.043 5.559 0 2.276 0.846 4.313 2.742 6.601 1.835 2.212 4.56 4.537 7.717 7.227l0.006 0.005c1.104 0.941 2.355 2.006 3.657 3.146 0.667-0.591 1.861-1.621 3.061-2.645l0.608-0.506c3.157-2.691 5.884-5.013 7.717-7.227 1.897-2.288 2.741-4.324 2.741-6.601 0-2.157-0.725-4.131-2.042-5.559-1.297-1.408-3.081-2.182-5.023-2.182-1.422 0-2.727 0.452-3.881 1.344-1.028 0.795-1.744 1.799-2.163 2.502-0.208 0.348-0.583 0.578-1.011 0.578-0.002 0-0.004 0-0.006 0h0c-0.002 0-0.003 0-0.005 0-0.429 0-0.803-0.23-1.008-0.573l-0.003-0.005c-0.419-0.703-1.135-1.708-2.163-2.502-1.152-0.892-2.459-1.344-3.881-1.344z"></path>
</symbol>
<symbol id="menu" viewBox="0 0 32 32">
<path d="M4 24h24v-2.667h-24v2.667zM4 17.333h24v-2.667h-24v2.667zM4 8v2.667h24v-2.667h-24z"></path>
</symbol>
<symbol id="out" viewBox="0 0 32 32">
<path d="M25.293 9.293l-1.413 1.414 4.292 4.292h-14.172v2.001h14.172l-4.292 4.292 1.413 1.414 6.707-6.707-6.707-6.707z"></path>
<path d="M22 30h-20v-28h20v2h2v-2.999c0-0 0-0.001 0-0.001 0-0.552-0.447-0.999-0.999-0.999 0 0 0 0 0 0h-22c-0 0-0.001 0-0.001 0-0.552 0-0.999 0.447-0.999 0.999 0 0 0 0.001 0 0.001v-0 30c0 0.553 0.448 0.999 1.001 0.999h22c0.553 0 0.999-0.448 0.999-1.001v-2.999h-2v2z"></path>
</symbol>
<symbol id="arrow" viewBox="0 0 32 32">
<path d="M31.805 15.529l-10-10c-0.121-0.121-0.287-0.195-0.471-0.195-0.368 0-0.667 0.299-0.667 0.667 0 0.184 0.075 0.351 0.195 0.471v0l8.862 8.862h-29.056c-0.368 0-0.667 0.298-0.667 0.667s0.298 0.667 0.667 0.667v0h29.056l-8.862 8.862c-0.121 0.121-0.195 0.287-0.195 0.471 0 0.368 0.299 0.667 0.667 0.667 0.184 0 0.351-0.075 0.471-0.195v0l10-10c0.121-0.121 0.195-0.287 0.195-0.471s-0.075-0.351-0.195-0.471v0z"></path>
</symbol>
<symbol id="close" viewBox="0 0 32 32">
<path d="M25.333 8.546l-1.879-1.879-7.454 7.454-7.453-7.454-1.881 1.879 7.454 7.454-7.454 7.454 1.881 1.879 7.453-7.454 7.454 7.454 1.879-1.879-7.453-7.454 7.453-7.454z"></path>
</symbol>
<symbol id="heart-2" viewBox="0 0 32 32">
<path d="M16 30.72l-2.24-2.24c-8.32-7.36-13.76-12.32-13.76-18.4 0-4.96 3.84-8.8 8.8-8.8 2.72 0 5.44 1.28 7.2 3.36 1.76-2.080 4.48-3.36 7.2-3.36 4.96 0 8.8 3.84 8.8 8.8 0 6.080-5.44 11.040-13.76 18.4l-2.24 2.24z"></path>
</symbol>
</defs>
</svg>
